<svg width="1024" height="1024" viewBox="0 0 1024 1024" fill="none" xmlns="http://www.w3.org/2000/svg">
<rect width="1024" height="1024" fill="url(#paint0_linear_13_9)"/>
<path d="M833.316 297.789C793.39 297.789 759.843 325.095 750.329 362.051H652.123C610.236 362.051 574.488 392.339 567.603 433.649L564.082 454.779C562.416 464.783 557.255 473.872 549.516 480.427C541.778 486.982 531.964 490.58 521.822 490.578H487.885C478.372 453.623 444.825 426.316 404.898 426.316C364.971 426.316 331.424 453.623 321.914 490.578H273.668C264.154 453.623 230.607 426.316 190.68 426.316C143.363 426.316 105 464.676 105 512C105 559.324 143.36 597.684 190.684 597.684C230.61 597.684 264.157 570.377 273.671 533.422H321.911C331.421 570.377 364.971 597.684 404.895 597.684C444.821 597.684 478.368 570.377 487.882 533.422H521.826C531.967 533.421 541.78 537.019 549.517 543.574C557.255 550.129 562.416 559.217 564.082 569.221L567.603 590.351C574.488 631.661 610.236 661.949 652.123 661.949H664.645C674.156 698.901 707.706 726.211 747.633 726.211C794.953 726.211 833.316 687.851 833.316 640.527C833.316 593.203 794.957 554.844 747.633 554.844C707.706 554.844 674.156 582.146 664.645 619.105H652.123C641.981 619.107 632.168 615.51 624.43 608.954C616.691 602.399 611.529 593.31 609.863 583.306L606.346 562.176C603.124 542.742 593.287 525.017 578.5 512C593.287 498.983 603.124 481.258 606.346 461.824L609.867 440.694C611.533 430.69 616.694 421.602 624.432 415.047C632.169 408.492 641.982 404.894 652.123 404.895H750.329C759.843 441.85 793.39 469.156 833.316 469.156C880.637 469.156 919 430.797 919 383.473C919 336.149 880.64 297.789 833.316 297.789ZM833.316 340.633C838.942 340.632 844.513 341.74 849.711 343.893C854.909 346.046 859.632 349.201 863.61 353.179C867.588 357.157 870.744 361.88 872.896 367.078C875.049 372.276 876.157 377.847 876.156 383.473C876.157 389.099 875.05 394.67 872.897 399.869C870.745 405.067 867.589 409.79 863.611 413.769C859.633 417.747 854.91 420.903 849.712 423.056C844.514 425.209 838.943 426.317 833.316 426.316C827.69 426.317 822.118 425.21 816.92 423.057C811.721 420.904 806.998 417.748 803.019 413.77C799.041 409.791 795.885 405.068 793.732 399.869C791.58 394.671 790.472 389.099 790.473 383.473C790.472 377.847 791.58 372.275 793.733 367.077C795.886 361.879 799.042 357.156 803.021 353.178C806.999 349.2 811.722 346.044 816.921 343.892C822.119 341.739 827.69 340.632 833.316 340.633ZM190.684 469.156C196.31 469.156 201.882 470.263 207.08 472.416C212.279 474.569 217.002 477.725 220.981 481.703C224.959 485.682 228.115 490.405 230.268 495.603C232.421 500.802 233.528 506.373 233.527 512C233.528 517.627 232.421 523.198 230.268 528.397C228.115 533.595 224.959 538.318 220.981 542.297C217.002 546.276 212.279 549.431 207.08 551.584C201.882 553.737 196.31 554.844 190.684 554.844C185.057 554.844 179.486 553.736 174.288 551.583C169.09 549.43 164.367 546.274 160.389 542.296C156.411 538.317 153.255 533.594 151.103 528.396C148.95 523.198 147.843 517.626 147.844 512C147.843 506.374 148.95 500.802 151.103 495.604C153.255 490.406 156.411 485.683 160.389 481.704C164.367 477.726 169.09 474.57 174.288 472.417C179.486 470.264 185.057 469.156 190.684 469.156ZM404.895 469.156C410.521 469.156 416.093 470.263 421.291 472.416C426.49 474.569 431.213 477.725 435.191 481.703C439.17 485.682 442.326 490.405 444.479 495.603C446.631 500.802 447.739 506.373 447.738 512C447.739 517.627 446.631 523.198 444.479 528.397C442.326 533.595 439.17 538.318 435.191 542.297C431.213 546.276 426.49 549.431 421.291 551.584C416.093 553.737 410.521 554.844 404.895 554.844C399.268 554.844 393.697 553.736 388.499 551.583C383.301 549.43 378.578 546.274 374.6 542.296C370.622 538.317 367.466 533.594 365.314 528.396C363.161 523.198 362.054 517.626 362.054 512C362.054 506.373 363.161 500.802 365.314 495.603C367.467 490.405 370.622 485.682 374.601 481.703C378.58 477.725 383.303 474.569 388.501 472.416C393.7 470.263 399.268 469.156 404.895 469.156ZM747.636 597.684C753.262 597.683 758.834 598.791 764.032 600.944C769.23 603.097 773.953 606.253 777.931 610.231C781.909 614.21 785.065 618.933 787.217 624.131C789.37 629.33 790.477 634.901 790.476 640.527C790.477 646.153 789.369 651.724 787.216 656.922C785.063 662.12 781.908 666.843 777.93 670.821C773.951 674.799 769.229 677.954 764.031 680.107C758.833 682.26 753.262 683.368 747.636 683.367C742.01 683.368 736.438 682.261 731.24 680.108C726.042 677.956 721.319 674.8 717.34 670.822C713.362 666.844 710.206 662.121 708.053 656.923C705.9 651.725 704.792 646.154 704.793 640.527C704.792 634.901 705.899 629.329 708.052 624.131C710.205 618.932 713.361 614.209 717.339 610.23C721.318 606.252 726.041 603.096 731.24 600.943C736.438 598.79 742.01 597.683 747.636 597.684Z" fill="white"/>
<defs>
<linearGradient id="paint0_linear_13_9" x1="10.5" y1="2.94905e-05" x2="1024" y2="1024" gradientUnits="userSpaceOnUse">
<stop stop-color="#6D4AFF"/>
<stop offset="1" stop-color="#957DFA"/>
</linearGradient>
</defs>
</svg>
